<svg width="440" height="446" viewBox="0 0 440 446" fill="none" xmlns="http://www.w3.org/2000/svg">
<g clip-path="url(#clip0_94_189)">
<path d="M439.368 434.843H-35.3679C-35.7171 434.843 -36 434.38 -36 433.81C-36 433.239 -35.7171 432.776 -35.3679 432.776H439.368C439.717 432.776 440 433.239 440 433.81C440 434.38 439.717 434.843 439.368 434.843Z" fill="#CACACA"/>
<path d="M27.9895 299.357C31.8177 299.357 34.921 296.251 34.921 292.42C34.921 288.589 31.8177 285.484 27.9895 285.484C24.1613 285.484 21.058 288.589 21.058 292.42C21.058 296.251 24.1613 299.357 27.9895 299.357Z" fill="#6C63FF"/>
<path d="M58.3817 348.802C62.2099 348.802 65.3132 345.696 65.3132 341.866C65.3132 338.035 62.2099 334.929 58.3817 334.929C54.5535 334.929 51.4502 338.035 51.4502 341.866C51.4502 345.696 54.5535 348.802 58.3817 348.802Z" fill="#6C63FF"/>
<path d="M34.9212 342.041C38.7493 342.041 41.8527 338.935 41.8527 335.104C41.8527 331.273 38.7493 328.168 34.9212 328.168C31.093 328.168 27.9896 331.273 27.9896 335.104C27.9896 338.935 31.093 342.041 34.9212 342.041Z" fill="#6C63FF"/>
<path d="M37.1312 433.555C37.009 433.355 34.1235 428.534 33.1237 418.524C32.2063 409.34 32.7964 393.86 40.819 372.266C56.0175 331.359 37.3162 298.353 37.1253 298.024L38.048 297.49C38.0966 297.573 42.9218 305.989 45.7729 319.387C49.5395 337.152 48.1678 355.624 41.8188 372.638C26.6464 413.476 37.9264 432.81 38.042 432.998L37.1312 433.555Z" fill="#3F3D56"/>
<path d="M31.1875 296.155C29.7112 296.155 28.268 295.717 27.0404 294.896C25.8129 294.076 24.8561 292.909 24.2911 291.544C23.7261 290.179 23.5783 288.677 23.8663 287.228C24.1544 285.779 24.8653 284.448 25.9092 283.403C26.9532 282.359 28.2833 281.647 29.7313 281.359C31.1793 281.071 32.6801 281.219 34.0441 281.784C35.4081 282.35 36.5739 283.307 37.3942 284.535C38.2144 285.764 38.6522 287.208 38.6522 288.685C38.6522 290.666 37.8657 292.566 36.4658 293.967C35.0659 295.368 33.1673 296.155 31.1875 296.155ZM31.1875 282.283C29.9222 282.283 28.6852 282.659 27.6331 283.362C26.581 284.066 25.7609 285.065 25.2767 286.235C24.7925 287.405 24.6658 288.692 24.9126 289.934C25.1595 291.176 25.7688 292.317 26.6636 293.212C27.5583 294.108 28.6983 294.718 29.9394 294.965C31.1804 295.212 32.4668 295.085 33.6359 294.6C34.8049 294.116 35.8041 293.295 36.5071 292.242C37.2101 291.189 37.5854 289.952 37.5854 288.685C37.5854 286.987 36.9113 285.359 35.7115 284.158C34.5117 282.958 32.8843 282.283 31.1875 282.283Z" fill="#3F3D56"/>
<path d="M53.0502 321.233C56.8784 321.233 59.9817 318.127 59.9817 314.296C59.9817 310.466 56.8784 307.36 53.0502 307.36C49.222 307.36 46.1187 310.466 46.1187 314.296C46.1187 318.127 49.222 321.233 53.0502 321.233Z" fill="#3F3D56"/>
<path d="M38.1197 338.837C36.6433 338.837 35.2001 338.399 33.9725 337.578C32.745 336.758 31.7882 335.591 31.2232 334.226C30.6583 332.861 30.5104 331.359 30.7985 329.91C31.0865 328.461 31.7974 327.13 32.8414 326.086C33.8853 325.041 35.2154 324.329 36.6634 324.041C38.1114 323.753 39.6123 323.901 40.9763 324.466C42.3402 325.032 43.5061 325.989 44.3263 327.217C45.1465 328.446 45.5843 329.89 45.5843 331.367C45.5843 333.349 44.7978 335.249 43.398 336.649C41.9981 338.05 40.0994 338.837 38.1197 338.837ZM38.1197 324.965C36.8543 324.965 35.6174 325.341 34.5654 326.044C33.5133 326.748 32.6934 327.748 32.2093 328.918C31.7251 330.088 31.5985 331.375 31.8454 332.617C32.0924 333.859 32.7017 335 33.5965 335.895C34.4913 336.79 35.6313 337.4 36.8723 337.647C38.1134 337.894 39.3997 337.767 40.5687 337.282C41.7378 336.798 42.7369 335.977 43.4399 334.924C44.1429 333.872 44.5181 332.634 44.5181 331.367C44.5181 330.527 44.3526 329.694 44.031 328.917C43.7095 328.141 43.2382 327.435 42.644 326.84C42.0499 326.246 41.3445 325.774 40.5682 325.452C39.7919 325.131 38.9599 324.965 38.1197 324.965Z" fill="#3F3D56"/>
<path d="M56.247 345.6C54.7706 345.6 53.3274 345.162 52.0999 344.341C50.8723 343.52 49.9155 342.354 49.3506 340.989C48.7856 339.624 48.6378 338.122 48.9258 336.673C49.2138 335.224 49.9247 333.893 50.9687 332.848C52.0126 331.803 53.3427 331.092 54.7907 330.804C56.2387 330.515 57.7396 330.663 59.1036 331.229C60.4675 331.794 61.6334 332.752 62.4536 333.98C63.2738 335.208 63.7116 336.653 63.7116 338.13C63.7116 339.111 63.5185 340.082 63.1434 340.989C62.7683 341.895 62.2184 342.718 61.5253 343.412C60.8321 344.106 60.0092 344.656 59.1036 345.031C58.1979 345.407 57.2273 345.6 56.247 345.6ZM56.247 331.728C54.9816 331.728 53.7447 332.103 52.6925 332.807C51.6404 333.51 50.8204 334.51 50.3362 335.68C49.8519 336.85 49.7252 338.137 49.9721 339.379C50.2189 340.621 50.8283 341.762 51.723 342.657C52.6178 343.552 53.7578 344.162 54.9988 344.409C56.2399 344.656 57.5263 344.53 58.6953 344.045C59.8644 343.56 60.8636 342.74 61.5666 341.687C62.2696 340.634 62.6448 339.396 62.6448 338.13C62.6448 336.432 61.9708 334.803 60.771 333.603C59.5712 332.402 57.9438 331.728 56.247 331.728Z" fill="#3F3D56"/>
<path d="M32.7893 375.12C36.6175 375.12 39.7208 372.015 39.7208 368.184C39.7208 364.353 36.6175 361.247 32.7893 361.247C28.9611 361.247 25.8578 364.353 25.8578 368.184C25.8578 372.015 28.9611 375.12 32.7893 375.12Z" fill="#3F3D56"/>
<path d="M41.3183 433.81C41.3183 433.81 34.3868 416.737 55.1808 403.931L41.3183 433.81Z" fill="#3F3D56"/>
<path d="M32.7947 433.5C32.7947 433.5 29.6399 415.342 5.2251 415.5L32.7947 433.5Z" fill="#3F3D56"/>
<path d="M394.886 432.406H312.957C312.957 432.406 311.297 408.031 321.122 407.755C330.948 407.478 329.839 418.555 342.158 403.323C354.477 388.092 369.422 388.921 371.359 397.923C373.296 406.926 367.623 414.126 378.001 411.91C388.378 409.695 403.328 415.51 394.886 432.406Z" fill="#4D4D4D"/>
<path d="M352.539 432.412L352.262 432.4C352.907 416.353 356.266 406.042 358.97 400.218C361.905 393.895 364.735 391.335 364.763 391.309L364.946 391.516C364.919 391.541 362.123 394.076 359.21 400.358C356.521 406.156 353.181 416.425 352.539 432.412Z" fill="#F2F2F2"/>
<path d="M382.191 432.446L381.926 432.369C383.986 425.568 387.7 419.384 392.735 414.372L392.921 414.577C387.923 419.554 384.237 425.693 382.191 432.446Z" fill="#F2F2F2"/>
<path d="M256.916 432.039L256.34 431.959C258.619 415.514 254.502 402.754 250.647 394.947C246.474 386.493 241.712 381.876 241.665 381.832L242.067 381.413C242.115 381.459 246.951 386.148 251.169 394.691C255.06 402.57 259.215 415.447 256.916 432.039Z" fill="#F2F2F2"/>
<path d="M406.005 432.777H304.121L304.097 432.432C304.037 431.572 302.739 411.306 309.3 404.076C309.951 403.312 310.755 402.693 311.66 402.258C312.564 401.824 313.55 401.584 314.552 401.554C318.83 401.432 321.518 403.037 323.685 404.322C327.771 406.748 330.471 408.351 340.289 396.211C350.922 383.059 362.394 380.23 368.989 381.803C373.251 382.82 376.188 385.694 377.047 389.687C377.861 393.468 377.602 397.022 377.393 399.877C377.17 402.932 376.994 405.344 378.248 406.438C379.295 407.351 381.384 407.433 384.822 406.699C391.816 405.206 401.573 406.484 406.472 412.817C409.107 416.223 411.183 422.417 406.109 432.572L406.005 432.777ZM304.816 432.036H405.547C409.327 424.359 409.446 417.874 405.885 413.27C401.392 407.46 391.965 405.931 384.975 407.424C381.24 408.221 379.014 408.089 377.761 406.996C376.228 405.66 376.416 403.084 376.653 399.823C376.859 397.015 377.114 393.521 376.322 389.843C375.525 386.139 372.789 383.472 368.816 382.524C362.432 381 351.28 383.794 340.863 396.676C330.646 409.316 327.568 407.487 323.31 404.959C321.116 403.654 318.626 402.179 314.576 402.294C313.673 402.323 312.786 402.541 311.972 402.933C311.158 403.326 310.436 403.885 309.851 404.574C303.952 411.072 304.671 429.296 304.816 432.036Z" fill="#3F3D56"/>
<path d="M207.08 61.7609C207.08 61.7609 195.073 57.4699 187.355 74.6343C179.636 91.7986 167.63 110.679 167.63 110.679L174.491 112.395C174.491 112.395 176.206 100.38 180.494 98.6632L178.78 114.111C178.78 114.111 222.904 132.133 246.06 112.395L248.633 106.246V112.395L254.636 109.679C254.636 109.679 252.063 104.53 244.345 97.6639C239.867 93.6484 237.068 88.09 236.507 82.0994C236.059 77.6235 234.27 73.3877 231.373 69.9475C226.243 63.9992 221.23 54.9432 207.08 61.7609Z" fill="#090814"/>
<path d="M194.416 129.058L181.978 113.502L172.651 81.6134L208.406 43.5028C208.406 43.5028 216.178 13.9475 209.183 15.5034C202.188 17.0593 200.634 38.8363 200.634 38.8363L155.554 73.8362C155.554 73.8362 160.218 122.836 173.431 139.947L183.535 171.835L194.416 129.058Z" fill="#FFB9B9"/>
<path d="M228.614 129.058L241.049 113.502L250.376 81.6134L214.625 43.5028C214.625 43.5028 206.852 13.9475 213.847 15.5034C220.842 17.0593 222.397 38.8363 222.397 38.8363L267.476 73.8362C267.476 73.8362 262.813 122.836 249.6 139.947L239.496 171.835L228.614 129.058Z" fill="#FFB9B9"/>
<path d="M212.102 113.99C222.397 113.99 230.743 105.638 230.743 95.3354C230.743 85.0328 222.397 76.681 212.102 76.681C201.806 76.681 193.46 85.0328 193.46 95.3354C193.46 105.638 201.806 113.99 212.102 113.99Z" fill="#FFB9B9"/>
<path d="M202.188 106.502C202.188 106.502 202.965 122.835 198.302 128.28C193.639 133.725 188.975 161.724 211.515 162.502C234.055 163.28 231.723 139.169 231.723 139.169L227.06 125.947C227.06 125.947 220.063 115.836 222.397 106.503L202.188 106.502Z" fill="#FFB9B9"/>
<path d="M181.203 287.722L197.914 292.778C197.914 292.778 211.515 284.611 211.515 292.389C211.515 300.167 206.852 310.278 208.406 317.278C209.96 324.277 213.069 341.388 208.406 341.388C203.743 341.388 194.416 311.055 194.416 311.055L178.871 302.5L181.203 287.722Z" fill="#FFB9B9"/>
<path d="M202.188 396.611L195.97 420.72C195.97 420.72 190.529 427.722 195.97 430.831C198.523 432.291 200.391 435.292 201.655 438.067C202.757 440.566 204.601 442.664 206.936 444.078C209.272 445.492 211.985 446.152 214.709 445.969C217.362 445.749 219.596 444.699 220.14 441.972C220.29 441.116 220.261 440.238 220.054 439.394C219.846 438.55 219.466 437.759 218.936 437.07C213.203 429.317 211.903 424.22 211.903 424.22L214.235 396.998L202.188 396.611Z" fill="#FFB9B9"/>
<path d="M187.138 99.205C187.138 99.205 194.862 83.9609 200.865 82.2442C206.868 80.5274 208.946 82.2442 208.946 82.2442C208.946 82.2442 222.299 89.1099 231.733 89.968C241.167 90.8261 232.591 75.1749 232.591 75.1749L215.438 70.8839L199.144 72.6001L186.28 81.182L187.138 99.205Z" fill="#090814"/>
<path d="M174.207 228.612L171.098 234.833C171.098 234.833 95.7073 258.945 101.925 281.497C108.144 304.05 143.119 297.83 143.119 297.83L181.98 304.833L185.866 287.722L158.663 280.719L205.296 263.608L206.851 342.941L200.633 399.718L216.178 401.274C216.178 401.274 233.277 349.163 230.944 327.385C230.944 327.385 259.704 238.719 243.379 225.497C227.055 212.274 174.207 228.612 174.207 228.612Z" fill="#090814"/>
<path d="M212.425 139.179L200.297 124.512L192.083 128.28L183.534 155.504C183.534 155.504 176.537 168.726 185.088 182.726C185.088 182.726 186.643 192.059 184.311 194.392C181.979 196.725 181.202 211.503 181.202 211.503L171.098 230.947C171.098 230.947 228.612 241.058 245.711 227.059C245.711 227.059 236.739 193.956 242.18 183.845C247.62 173.734 248.397 158.233 242.18 151.233C235.962 144.233 229.39 125.949 229.39 125.949L225.626 123.54L212.425 139.179Z" fill="#6C63FF"/>
<path d="M257.767 23.0563H250.313V15.5966H249.635V23.0563H242.181V23.734H249.635V31.1938H250.313V23.734H257.767V23.0563Z" fill="#3F3D56"/>
<path d="M186.922 7.45975H179.468V0H178.791V7.45975H171.337V8.13742H178.791V15.5966H179.469V8.13742H186.923L186.922 7.45975Z" fill="#3F3D56"/>
</g>
<defs>
<clipPath id="clip0_94_189">
<rect width="476" height="446" fill="white" transform="translate(-36)"/>
</clipPath>
</defs>
</svg>
